<?xml version="1.0" encoding="UTF-8" standalone="no"?>
<svg
   xmlns:dc="http://purl.org/dc/elements/1.1/"
   xmlns:cc="http://creativecommons.org/ns#"
   xmlns:rdf="http://www.w3.org/1999/02/22-rdf-syntax-ns#"
   xmlns:svg="http://www.w3.org/2000/svg"
   xmlns="http://www.w3.org/2000/svg"
   xmlns:sodipodi="http://sodipodi.sourceforge.net/DTD/sodipodi-0.dtd"
   xmlns:inkscape="http://www.inkscape.org/namespaces/inkscape"
   aria-hidden="true"
   focusable="false"
   data-prefix="fas"
   data-icon="user-lock"
   class="svg-inline--fa fa-user-lock fa-w-20"
   role="img"
   viewBox="0 0 640 640"
   version="1.1"
   id="svg3711"
   sodipodi:docname="application_logo.svg"
   inkscape:export-filename="C:\Users\PortableEmeline\IdeaProjects\JasyptConfigurationEncryptor\src\main\resources\images\application_logo.png"
   inkscape:export-xdpi="90"
   inkscape:export-ydpi="90"
   inkscape:version="0.92.2 (5c3e80d, 2017-08-06)"
   width="640"
   height="640">
  <metadata
     id="metadata3717">
    <rdf:RDF>
      <cc:Work
         rdf:about="">
        <dc:format>image/svg+xml</dc:format>
        <dc:type
           rdf:resource="http://purl.org/dc/dcmitype/StillImage" />
        <dc:title></dc:title>
      </cc:Work>
    </rdf:RDF>
  </metadata>
  <defs
     id="defs3715" />
  <sodipodi:namedview
     pagecolor="#ffffff"
     bordercolor="#666666"
     borderopacity="1"
     objecttolerance="10"
     gridtolerance="10"
     guidetolerance="10"
     inkscape:pageopacity="0"
     inkscape:pageshadow="2"
     inkscape:window-width="1920"
     inkscape:window-height="1001"
     id="namedview3713"
     showgrid="false"
     inkscape:zoom="0.55795144"
     inkscape:cx="405.94464"
     inkscape:cy="76.730514"
     inkscape:window-x="-9"
     inkscape:window-y="-9"
     inkscape:window-maximized="1"
     inkscape:current-layer="svg3711" />
  <path
     d="m 224,322.15458 a 128,128 0 1 0 -128,-128 128,128 0 0 0 128,128 z m 96,64 a 63.08,63.08 0 0 1 8.1,-30.5 c -4.8,-0.5 -9.5,-1.5 -14.5,-1.5 h -16.7 a 174.08,174.08 0 0 1 -145.8,0 H 134.4 A 134.43,134.43 0 0 0 0,488.55458 v 41.6 a 48,48 0 0 0 48,48 h 280.9 a 63.54,63.54 0 0 1 -8.9,-32 z m 288,-32 h -32 v -80 a 80,80 0 0 0 -160,0 v 80 h -32 a 32,32 0 0 0 -32,32 v 160 a 32,32 0 0 0 32,32 h 224 a 32,32 0 0 0 32,-32 v -160 a 32,32 0 0 0 -32,-32 z m -112,144 a 32,32 0 1 1 32,-32 32,32 0 0 1 -32,32 z m 32,-144 h -64 v -80 a 32,32 0 0 1 64,0 z"
     id="path3709"
     inkscape:connector-curvature="0"
     style="fill:currentColor" />
</svg>
